# xmcd
#
# Track frame offsets: 
#        150
#        13197
#        27352
#        38402
#        49117
#        61475
#        74795
#        85247
#        96877
#        111217
#        126110
#        137612
#        154295
#        164945
#        176977
#        189895
#        203865
#        217000
#        228607
#        238040
#        249717
#        260942
#        271292
#        281907
#
# Disc length: 3983 seconds
#
# Revision: 8
# Processed by: cddbd v1.5.2PL0 Copyright (c) Steve Scherf et al.
# Submitted via: ExactAudioCopy v1.0b1
#
DISCID=7c0f8d18
DTITLE=Various Artist - Country U.S.A. Vol. 5 1971
DYEAR=1989
DGENRE=Country
TTITLE0=Johnny Cash - Man In Black
TTITLE1=Dolly Parton - Joshua
TTITLE2=Loretta Lynn And Conway Twitty - Lead Me On
TTITLE3=Charley Pride - I'm Just Me
TTITLE4=Tom T. Hall - The Year That Clayton Delaney Died
TTITLE5=Conway Twitty - How Much More Can She Stand
TTITLE6=Loretta Lynn - You're Lookin' At Country
TTITLE7=Sonny James - Bright Lights Big City
TTITLE8=Red Simpson - I'm A Truck
TTITLE9=Merle Haggard - Daddy Frank (The Guitar Man)
TTITLE10=Tammy Wynette - Good Lovin' (Makes It Right)
TTITLE11=Ray Price - I Won't Mention It Again
TTITLE12=Jerry Reed - When You're Hot You're Hot
TTITLE13=Conway Twitty And Loretta Lynn - After The Fire Is Gone
TTITLE14=Jerry Lee Lewis - Would You Take Another Chance On Me
TTITLE15=Dolly Parton - Coat Of Many Colors
TTITLE16=Johnny Paycheck - She's All I Got
TTITLE17=Sammi Smith - Help Me Make It Through The Night
TTITLE18=Charley Pride - Kiss An Angel Good Mornin'
TTITLE19=Merle Haggard - Carolyn
TTITLE20=Freddie Hart - Easy Loving
TTITLE21=Loretta Lynn - I Wanna Be Free
TTITLE22=Sonny James - Empty Arms
TTITLE23=Willie Nelson - Me And Paul
EXTD=YEAR: 1971
EXTT0=
EXTT1=
EXTT2=
EXTT3=
EXTT4=
EXTT5=
EXTT6=
EXTT7=
EXTT8=
EXTT9=
EXTT10=
EXTT11=
EXTT12=
EXTT13=
EXTT14=
EXTT15=
EXTT16=
EXTT17=
EXTT18=
EXTT19=
EXTT20=
EXTT21=
EXTT22=
EXTT23=
PLAYORDER=
